<svg xmlns="http://www.w3.org/2000/svg" viewBox="0 0 44 44">
  <path d="M0,0H44V44H0V0Z" fill="none"/>
  <path d="M18.3,9.2c0-2,1.6-3.7,3.7-3.7s3.7,1.6,3.7,3.7c4.3,2,7.1,6.3,7.3,11v5.5c.3,2.3,1.6,4.4,3.7,5.5H7.3c2-1.1,3.4-3.2,3.7-5.5v-5.5c.2-4.8,3-9,7.3-11" fill="none" stroke="currentColor" stroke-linecap="round" stroke-linejoin="round" stroke-width="2.75"/>
  <path d="M16.5,31.2v1.8c0,3,2.5,5.5,5.5,5.5s5.5-2.5,5.5-5.5v-1.8" fill="none" stroke="currentColor" stroke-linecap="round" stroke-linejoin="round" stroke-width="2.75"/>
  <circle cx="31.5" cy="17.7" r="6.1" fill="var(--lzo-priority-high)" stroke="#fff" stroke-miterlimit="10" stroke-width="4.49"/>
  <circle cx="31.5" cy="17.7" r="6.1" fill="var(--lzo-priority-high)"/>
</svg>